ffmpeg started on 2025-06-19 at 12:00:05
Report written to "D:\Convert\FFMetrics\reports\psnr_report-6.txt"
Log level: 32
Command line:
ffmpeg -hide_banner -nostdin -i "G:\\\xc0\xed\xe8\xec\xe5\\[\xd2\xee\xef-4]\\Fate\\\xc0\xef\xee\xea\xf0\xe8\xf4\\Fate_Apocrypha_[15]_[AniLibria_TV]_[HDTVRip_720p]_HEVC.mkv" -i "G:\\\xc0\xed\xe8\xec\xe5\\[\xd2\xee\xef-4]\\Fate\\\xc0\xef\xee\xea\xf0\xe8\xf4\\Fate_Apocrypha_[15]_[AniLibria_TV]_[HDTVRip_720p].mkv" -lavfi "[0:v]settb=AVTB,setpts=PTS-STARTPTS,format=pix_fmts=yuv420p10,fps=24000/1001,scale=1280:720:flags=bicubic[main];[1:v]settb=AVTB,setpts=PTS-STARTPTS,format=pix_fmts=yuv420p,fps=24000/1001,scale=1280:720:flags=bicubic[ref];[main][ref]psnr=eof_action=endall:stats_file='D\\:/Convert/FFMetrics/logs/psnr_logfile-6.txt'" -f null -
Input #0, matroska,webm, from 'G:\Аниме\[Топ-4]\Fate\Апокриф\Fate_Apocrypha_[15]_[AniLibria_TV]_[HDTVRip_720p]_HEVC.mkv':
  Metadata:
    ENCODER         : Lavf61.7.100
  Duration: 00:24:00.11, start: -0.021000, bitrate: 563 kb/s
  Stream #0:0(jpn): Video: hevc (Main 10), yuv420p10le(tv, bt709, progressive), 1280x720 [SAR 1:1 DAR 16:9], 23.98 fps, 23.98 tbr, 1k tbn (default)
      Metadata:
        ENCODER         : Lavc61.19.100 libx265
        BPS             : 366140
        DURATION        : 00:23:59.980708333
        NUMBER_OF_FRAMES: 34525
        NUMBER_OF_BYTES : 65904427
        _STATISTICS_WRITING_APP: mkvpropedit v66.0.0 ('Josie') 64-bit
        _STATISTICS_WRITING_DATE_UTC: 2025-06-16 17:04:26
        _STATISTICS_TAGS: BPS DURATION NUMBER_OF_FRAMES NUMBER_OF_BYTES
  Stream #0:1(rus): Audio: aac (LC), 48000 Hz, stereo, fltp (default)
      Metadata:
        title           : Ados Amikiri Anzen Hekomi Silv
        ENCODER         : Lavc61.19.100 aac
        BPS             : 193476
        DURATION        : 00:24:00.085000000
        NUMBER_OF_FRAMES: 67505
        NUMBER_OF_BYTES : 34827843
        _STATISTICS_WRITING_APP: mkvpropedit v66.0.0 ('Josie') 64-bit
        _STATISTICS_WRITING_DATE_UTC: 2025-06-16 17:04:26
        _STATISTICS_TAGS: BPS DURATION NUMBER_OF_FRAMES NUMBER_OF_BYTES
  Stream #0:2(rus): Subtitle: ass (ssa) (default) (forced)
      Metadata:
        title           : Надписи
        BPS             : 467
        DURATION        : 00:00:02.980000000
        NUMBER_OF_FRAMES: 2
        NUMBER_OF_BYTES : 174
        _STATISTICS_WRITING_APP: mkvpropedit v66.0.0 ('Josie') 64-bit
        _STATISTICS_WRITING_DATE_UTC: 2025-06-16 17:04:26
        _STATISTICS_TAGS: BPS DURATION NUMBER_OF_FRAMES NUMBER_OF_BYTES
  Stream #0:3(rus): Subtitle: ass (ssa)
      Metadata:
        title           : Полные
        BPS             : 162
        DURATION        : 00:22:18.540000000
        NUMBER_OF_FRAMES: 315
        NUMBER_OF_BYTES : 27122
        _STATISTICS_WRITING_APP: mkvpropedit v66.0.0 ('Josie') 64-bit
        _STATISTICS_WRITING_DATE_UTC: 2025-06-16 17:04:26
        _STATISTICS_TAGS: BPS DURATION NUMBER_OF_FRAMES NUMBER_OF_BYTES
Input #1, matroska,webm, from 'G:\Аниме\[Топ-4]\Fate\Апокриф\Fate_Apocrypha_[15]_[AniLibria_TV]_[HDTVRip_720p].mkv':
  Metadata:
    encoder         : libebml v1.3.0 + libmatroska v1.4.1
    creation_time   : 2017-10-17T18:40:48.000000Z
  Duration: 00:24:00.09, start: 0.000000, bitrate: 1673 kb/s
  Stream #1:0: Video: h264 (Main), yuv420p(tv, bt709, progressive), 1280x720, SAR 1:1 DAR 16:9, 23.98 fps, 23.98 tbr, 1k tbn (default)
      Metadata:
        BPS             : 1276105
        BPS-eng         : 1276105
        DURATION        : 00:23:59.981000000
        DURATION-eng    : 00:23:59.981000000
        NUMBER_OF_FRAMES: 34525
        NUMBER_OF_FRAMES-eng: 34525
        NUMBER_OF_BYTES : 229695909
        NUMBER_OF_BYTES-eng: 229695909
        _STATISTICS_WRITING_APP: mkvmerge v7.3.0 ('Nouages') 64bit built on Oct 22 2014 18:53:34
        _STATISTICS_WRITING_APP-eng: mkvmerge v7.3.0 ('Nouages') 64bit built on Oct 22 2014 18:53:34
        _STATISTICS_WRITING_DATE_UTC: 2017-10-17 18:40:48
        _STATISTICS_WRITING_DATE_UTC-eng: 2017-10-17 18:40:48
        _STATISTICS_TAGS: BPS DURATION NUMBER_OF_FRAMES NUMBER_OF_BYTES
        _STATISTICS_TAGS-eng: BPS DURATION NUMBER_OF_FRAMES NUMBER_OF_BYTES
  Stream #1:1(rus): Audio: aac (LC), 48000 Hz, stereo, fltp (default)
      Metadata:
        title           : Ados Amikiri Anzen Hekomi Silv
        BPS             : 192092
        BPS-eng         : 192092
        DURATION        : 00:24:00.085000000
        DURATION-eng    : 00:24:00.085000000
        NUMBER_OF_FRAMES: 67504
        NUMBER_OF_FRAMES-eng: 67504
        NUMBER_OF_BYTES : 34578764
        NUMBER_OF_BYTES-eng: 34578764
        _STATISTICS_WRITING_APP: mkvmerge v7.3.0 ('Nouages') 64bit built on Oct 22 2014 18:53:34
        _STATISTICS_WRITING_APP-eng: mkvmerge v7.3.0 ('Nouages') 64bit built on Oct 22 2014 18:53:34
        _STATISTICS_WRITING_DATE_UTC: 2017-10-17 18:40:48
        _STATISTICS_WRITING_DATE_UTC-eng: 2017-10-17 18:40:48
        _STATISTICS_TAGS: BPS DURATION NUMBER_OF_FRAMES NUMBER_OF_BYTES
        _STATISTICS_TAGS-eng: BPS DURATION NUMBER_OF_FRAMES NUMBER_OF_BYTES
  Stream #1:2(jpn): Audio: aac (LC), 48000 Hz, stereo, fltp
      Metadata:
        title           : Оригинал
        BPS             : 200850
        BPS-eng         : 200850
        DURATION        : 00:24:00.042000000
        DURATION-eng    : 00:24:00.042000000
        NUMBER_OF_FRAMES: 67502
        NUMBER_OF_FRAMES-eng: 67502
        NUMBER_OF_BYTES : 36154208
        NUMBER_OF_BYTES-eng: 36154208
        _STATISTICS_WRITING_APP: mkvmerge v7.3.0 ('Nouages') 64bit built on Oct 22 2014 18:53:34
        _STATISTICS_WRITING_APP-eng: mkvmerge v7.3.0 ('Nouages') 64bit built on Oct 22 2014 18:53:34
        _STATISTICS_WRITING_DATE_UTC: 2017-10-17 18:40:48
        _STATISTICS_WRITING_DATE_UTC-eng: 2017-10-17 18:40:48
        _STATISTICS_TAGS: BPS DURATION NUMBER_OF_FRAMES NUMBER_OF_BYTES
        _STATISTICS_TAGS-eng: BPS DURATION NUMBER_OF_FRAMES NUMBER_OF_BYTES
  Stream #1:3(rus): Subtitle: ass (ssa) (default) (forced)
      Metadata:
        title           : Надписи
        BPS             : 467
        BPS-eng         : 467
        DURATION        : 00:00:02.980000000
        DURATION-eng    : 00:00:02.980000000
        NUMBER_OF_FRAMES: 2
        NUMBER_OF_FRAMES-eng: 2
        NUMBER_OF_BYTES : 174
        NUMBER_OF_BYTES-eng: 174
        _STATISTICS_WRITING_APP: mkvmerge v7.3.0 ('Nouages') 64bit built on Oct 22 2014 18:53:34
        _STATISTICS_WRITING_APP-eng: mkvmerge v7.3.0 ('Nouages') 64bit built on Oct 22 2014 18:53:34
        _STATISTICS_WRITING_DATE_UTC: 2017-10-17 18:40:48
        _STATISTICS_WRITING_DATE_UTC-eng: 2017-10-17 18:40:48
        _STATISTICS_TAGS: BPS DURATION NUMBER_OF_FRAMES NUMBER_OF_BYTES
        _STATISTICS_TAGS-eng: BPS DURATION NUMBER_OF_FRAMES NUMBER_OF_BYTES
  Stream #1:4(rus): Subtitle: ass (ssa)
      Metadata:
        title           : Полные
        BPS             : 162
        BPS-eng         : 162
        DURATION        : 00:22:18.540000000
        DURATION-eng    : 00:22:18.540000000
        NUMBER_OF_FRAMES: 315
        NUMBER_OF_FRAMES-eng: 315
        NUMBER_OF_BYTES : 27122
        NUMBER_OF_BYTES-eng: 27122
        _STATISTICS_WRITING_APP: mkvmerge v7.3.0 ('Nouages') 64bit built on Oct 22 2014 18:53:34
        _STATISTICS_WRITING_APP-eng: mkvmerge v7.3.0 ('Nouages') 64bit built on Oct 22 2014 18:53:34
        _STATISTICS_WRITING_DATE_UTC: 2017-10-17 18:40:48
        _STATISTICS_WRITING_DATE_UTC-eng: 2017-10-17 18:40:48
        _STATISTICS_TAGS: BPS DURATION NUMBER_OF_FRAMES NUMBER_OF_BYTES
        _STATISTICS_TAGS-eng: BPS DURATION NUMBER_OF_FRAMES NUMBER_OF_BYTES
  Stream #1:5: Attachment: ttf
      Metadata:
        filename        : ALBR.ttf
        mimetype        : application/x-truetype-font
  Stream #1:6: Attachment: ttf
      Metadata:
        filename        : 9511(1).ttf
        mimetype        : application/x-truetype-font
Stream mapping:
  Stream #0:0 (hevc) -> settb:default
  Stream #1:0 (h264) -> settb:default
  psnr:default -> Stream #0:0 (wrapped_avframe)
  Stream #0:1 -> #0:1 (aac (native) -> pcm_s16le (native))
Output #0, null, to 'pipe:':
  Metadata:
    encoder         : Lavf61.7.100
  Stream #0:0: Video: wrapped_avframe, yuv420p10le(tv, bt709, progressive), 1280x720 [SAR 1:1 DAR 16:9], q=2-31, 200 kb/s, 23.98 fps, 23.98 tbn
      Metadata:
        encoder         : Lavc61.19.100 wrapped_avframe
  Stream #0:1(rus): Audio: pcm_s16le, 48000 Hz, stereo, s16, 1536 kb/s (default)
      Metadata:
        title           : Ados Amikiri Anzen Hekomi Silv
        _STATISTICS_TAGS: BPS DURATION NUMBER_OF_FRAMES NUMBER_OF_BYTES
        BPS             : 193476
        DURATION        : 00:24:00.085000000
        NUMBER_OF_FRAMES: 67505
        NUMBER_OF_BYTES : 34827843
        _STATISTICS_WRITING_APP: mkvpropedit v66.0.0 ('Josie') 64-bit
        _STATISTICS_WRITING_DATE_UTC: 2025-06-16 17:04:26
        encoder         : Lavc61.19.100 pcm_s16le
frame=  466 fps=0.0 q=-0.0 size=N/A time=00:00:19.43 bitrate=N/A speed=38.1x    frame=  855 fps=826 q=-0.0 size=N/A time=00:00:35.66 bitrate=N/A speed=34.5x    frame= 1283 fps=832 q=-0.0 size=N/A time=00:00:53.51 bitrate=N/A speed=34.7x    frame= 1679 fps=812 q=-0.0 size=N/A time=00:01:10.02 bitrate=N/A speed=33.9x    frame= 2103 fps=817 q=-0.0 size=N/A time=00:01:27.71 bitrate=N/A speed=34.1x    frame= 2482 fps=800 q=-0.0 size=N/A time=00:01:43.52 bitrate=N/A speed=33.4x    frame= 2939 fps=814 q=-0.0 size=N/A time=00:02:02.58 bitrate=N/A speed=  34x    frame= 3403 fps=826 q=-0.0 size=N/A time=00:02:21.93 bitrate=N/A speed=34.5x    frame= 3915 fps=843 q=-0.0 size=N/A time=00:02:43.28 bitrate=N/A speed=35.1x    frame= 4514 fps=875 q=-0.0 size=N/A time=00:03:08.27 bitrate=N/A speed=36.5x    frame= 5118 fps=901 q=-0.0 size=N/A time=00:03:33.46 bitrate=N/A speed=37.6x    frame= 5696 fps=921 q=-0.0 size=N/A time=00:03:57.57 bitrate=N/A speed=38.4x    frame= 6197 fps=923 q=-0.0 size=N/A time=00:04:18.46 bitrate=N/A speed=38.5x    frame= 6791 fps=940 q=-0.0 size=N/A time=00:04:43.24 bitrate=N/A speed=39.2x    frame= 7323 fps=947 q=-0.0 size=N/A time=00:05:05.47 bitrate=N/A speed=39.5x    frame= 7797 fps=944 q=-0.0 size=N/A time=00:05:25.19 bitrate=N/A speed=39.4x    frame= 8418 fps=960 q=-0.0 size=N/A time=00:05:51.10 bitrate=N/A speed=  40x    frame= 9087 fps=979 q=-0.0 size=N/A time=00:06:19.00 bitrate=N/A speed=40.8x    frame= 9747 fps=994 q=-0.0 size=N/A time=00:06:46.53 bitrate=N/A speed=41.5x    frame=10356 fps=1004 q=-0.0 size=N/A time=00:07:11.93 bitrate=N/A speed=41.9x    frame=10893 fps=1006 q=-0.0 size=N/A time=00:07:34.32 bitrate=N/A speed=41.9x    frame=11511 fps=1015 q=-0.0 size=N/A time=00:08:00.10 bitrate=N/A speed=42.3x    frame=12141 fps=1023 q=-0.0 size=N/A time=00:08:26.38 bitrate=N/A speed=42.7x    frame=12739 fps=1029 q=-0.0 size=N/A time=00:08:51.32 bitrate=N/A speed=42.9x    frame=13342 fps=1035 q=-0.0 size=N/A time=00:09:16.47 bitrate=N/A speed=43.2x    frame=13949 fps=1040 q=-0.0 size=N/A time=00:09:41.78 bitrate=N/A speed=43.4x    frame=14463 fps=1039 q=-0.0 size=N/A time=00:10:03.22 bitrate=N/A speed=43.3x    frame=15003 fps=1039 q=-0.0 size=N/A time=00:10:25.75 bitrate=N/A speed=43.3x    frame=15582 fps=1042 q=-0.0 size=N/A time=00:10:49.89 bitrate=N/A speed=43.5x    frame=16201 fps=1048 q=-0.0 size=N/A time=00:11:15.71 bitrate=N/A speed=43.7x    frame=16829 fps=1052 q=-0.0 size=N/A time=00:11:41.90 bitrate=N/A speed=43.9x    frame=17385 fps=1054 q=-0.0 size=N/A time=00:12:05.09 bitrate=N/A speed=43.9x    frame=17975 fps=1057 q=-0.0 size=N/A time=00:12:29.70 bitrate=N/A speed=44.1x    frame=18602 fps=1061 q=-0.0 size=N/A time=00:12:55.85 bitrate=N/A speed=44.2x    frame=19173 fps=1062 q=-0.0 size=N/A time=00:13:19.67 bitrate=N/A speed=44.3x    frame=19803 fps=1067 q=-0.0 size=N/A time=00:13:45.95 bitrate=N/A speed=44.5x    frame=20383 fps=1068 q=-0.0 size=N/A time=00:14:10.14 bitrate=N/A speed=44.6x    frame=20878 fps=1066 q=-0.0 size=N/A time=00:14:30.78 bitrate=N/A speed=44.4x    frame=21307 fps=1059 q=-0.0 size=N/A time=00:14:48.67 bitrate=N/A speed=44.2x    frame=21849 fps=1060 q=-0.0 size=N/A time=00:15:11.28 bitrate=N/A speed=44.2x    frame=22304 fps=1055 q=-0.0 size=N/A time=00:15:30.26 bitrate=N/A speed=  44x    frame=22896 fps=1057 q=-0.0 size=N/A time=00:15:54.95 bitrate=N/A speed=44.1x    frame=23509 fps=1060 q=-0.0 size=N/A time=00:16:20.52 bitrate=N/A speed=44.2x    frame=24100 fps=1062 q=-0.0 size=N/A time=00:16:45.17 bitrate=N/A speed=44.3x    frame=24669 fps=1062 q=-0.0 size=N/A time=00:17:08.90 bitrate=N/A speed=44.3x    frame=25247 fps=1063 q=-0.0 size=N/A time=00:17:33.01 bitrate=N/A speed=44.4x    frame=25781 fps=1063 q=-0.0 size=N/A time=00:17:55.28 bitrate=N/A speed=44.3x    frame=26260 fps=1060 q=-0.0 size=N/A time=00:18:15.26 bitrate=N/A speed=44.2x    frame=26848 fps=1062 q=-0.0 size=N/A time=00:18:39.78 bitrate=N/A speed=44.3x    frame=27387 fps=1061 q=-0.0 size=N/A time=00:19:02.26 bitrate=N/A speed=44.3x    frame=28014 fps=1065 q=-0.0 size=N/A time=00:19:28.41 bitrate=N/A speed=44.4x    frame=28613 fps=1067 q=-0.0 size=N/A time=00:19:53.40 bitrate=N/A speed=44.5x    frame=29222 fps=1069 q=-0.0 size=N/A time=00:20:18.80 bitrate=N/A speed=44.6x    frame=29726 fps=1067 q=-0.0 size=N/A time=00:20:39.82 bitrate=N/A speed=44.5x    frame=30285 fps=1067 q=-0.0 size=N/A time=00:21:03.13 bitrate=N/A speed=44.5x    frame=30849 fps=1067 q=-0.0 size=N/A time=00:21:26.66 bitrate=N/A speed=44.5x    frame=31315 fps=1064 q=-0.0 size=N/A time=00:21:46.09 bitrate=N/A speed=44.4x    frame=31875 fps=1065 q=-0.0 size=N/A time=00:22:09.45 bitrate=N/A speed=44.4x    frame=32378 fps=1063 q=-0.0 size=N/A time=00:22:30.43 bitrate=N/A speed=44.4x    frame=33008 fps=1066 q=-0.0 size=N/A time=00:22:56.70 bitrate=N/A speed=44.4x    frame=33464 fps=1063 q=-0.0 size=N/A time=00:23:15.72 bitrate=N/A speed=44.3x    frame=33866 fps=1059 q=-0.0 size=N/A time=00:23:32.53 bitrate=N/A speed=44.2x    frame=34464 fps=1060 q=-0.0 size=N/A time=00:23:57.43 bitrate=N/A speed=44.2x    [Parsed_psnr_10 @ 000002b825d7a880] PSNR y:47.684968 u:49.288384 v:49.854198 average:48.225253 min:39.455327 max:64.270529
[out#0/null @ 000002b81b4e1c00] video:14835KiB audio:270020KiB subtitle:0KiB other streams:0KiB global headers:0KiB muxing overhead: unknown
frame=34525 fps=1060 q=-0.0 Lsize=N/A time=00:23:59.98 bitrate=N/A speed=44.2x    
